<mxfile host="Electron" modified="2023-09-19T09:14:55.247Z" agent="Mozilla/5.0 (Windows NT 10.0; Win64; x64) AppleWebKit/537.36 (KHTML, like Gecko) draw.io/21.7.5 Chrome/114.0.5735.289 Electron/25.8.1 Safari/537.36" etag="YV1_awSCRjvAWOVu_Hq3" version="21.7.5" type="device">
  <diagram name="Page-1" id="c9db0220-8083-56f3-ca83-edcdcd058819">
    <mxGraphModel dx="1391" dy="857" grid="1" gridSize="10" guides="1" tooltips="1" connect="1" arrows="1" fold="1" page="1" pageScale="1.5" pageWidth="826" pageHeight="1169" background="#ffffff" math="0" shadow="0">
      <root>
        <mxCell id="0" style=";html=1;" />
        <mxCell id="1" style=";html=1;" parent="0" />
        <mxCell id="1Ng4_Pogers-fWILuyGW-9" value="" style="html=1;shadow=0;dashed=0;shape=mxgraph.bootstrap.rrect;rSize=5;fontSize=12;strokeColor=#dddddd;align=left;spacing=10;verticalAlign=top;whiteSpace=wrap;rounded=0;" parent="1" vertex="1">
          <mxGeometry x="160" y="230" width="840" height="560" as="geometry" />
        </mxCell>
        <mxCell id="tDJVFSzK_O32tygDH-b1-42" value="&lt;h2&gt;&lt;b&gt;&lt;font style=&quot;font-size: 19px;&quot;&gt;PRICE&lt;/font&gt;&lt;/b&gt;&lt;/h2&gt;" style="rounded=1;whiteSpace=wrap;html=1;fillColor=#d5e8d4;strokeColor=#82b366;" parent="1" vertex="1">
          <mxGeometry x="240" y="440" width="110" height="35" as="geometry" />
        </mxCell>
        <mxCell id="tDJVFSzK_O32tygDH-b1-43" value="&lt;h2&gt;&lt;b&gt;&lt;font style=&quot;font-size: 19px;&quot;&gt;PRICE&lt;/font&gt;&lt;/b&gt;&lt;/h2&gt;" style="rounded=1;whiteSpace=wrap;html=1;fillColor=#d5e8d4;strokeColor=#82b366;" parent="1" vertex="1">
          <mxGeometry x="525" y="440" width="110" height="35" as="geometry" />
        </mxCell>
        <mxCell id="tDJVFSzK_O32tygDH-b1-44" value="&lt;h2&gt;&lt;b&gt;&lt;font style=&quot;font-size: 19px;&quot;&gt;PRICE&lt;/font&gt;&lt;/b&gt;&lt;/h2&gt;" style="rounded=1;whiteSpace=wrap;html=1;fillColor=#d5e8d4;strokeColor=#82b366;" parent="1" vertex="1">
          <mxGeometry x="805" y="440" width="110" height="35" as="geometry" />
        </mxCell>
        <mxCell id="tDJVFSzK_O32tygDH-b1-45" value="&lt;h2&gt;&lt;b&gt;&lt;font style=&quot;font-size: 19px;&quot;&gt;PRICE&lt;/font&gt;&lt;/b&gt;&lt;/h2&gt;" style="rounded=1;whiteSpace=wrap;html=1;fillColor=#d5e8d4;strokeColor=#82b366;" parent="1" vertex="1">
          <mxGeometry x="805" y="720" width="110" height="35" as="geometry" />
        </mxCell>
        <mxCell id="tDJVFSzK_O32tygDH-b1-46" value="&lt;h2&gt;&lt;b&gt;&lt;font style=&quot;font-size: 19px;&quot;&gt;PRICE&lt;/font&gt;&lt;/b&gt;&lt;/h2&gt;" style="rounded=1;whiteSpace=wrap;html=1;fillColor=#d5e8d4;strokeColor=#82b366;" parent="1" vertex="1">
          <mxGeometry x="525" y="720" width="110" height="35" as="geometry" />
        </mxCell>
        <mxCell id="tDJVFSzK_O32tygDH-b1-47" value="&lt;h2&gt;&lt;b&gt;&lt;font style=&quot;font-size: 19px;&quot;&gt;PRICE&lt;/font&gt;&lt;/b&gt;&lt;/h2&gt;" style="rounded=1;whiteSpace=wrap;html=1;fillColor=#d5e8d4;strokeColor=#82b366;" parent="1" vertex="1">
          <mxGeometry x="245" y="720" width="110" height="35" as="geometry" />
        </mxCell>
        <mxCell id="tDJVFSzK_O32tygDH-b1-41" value="" style="group" parent="1" vertex="1" connectable="0">
          <mxGeometry x="1050.0048484848485" y="230" width="230" height="350" as="geometry" />
        </mxCell>
        <mxCell id="tDJVFSzK_O32tygDH-b1-37" value="" style="rounded=0;whiteSpace=wrap;html=1;" parent="tDJVFSzK_O32tygDH-b1-41" vertex="1">
          <mxGeometry width="230" height="350" as="geometry" />
        </mxCell>
        <mxCell id="3d76a8aef4d5c911-12" value="320x200" style="shape=rect;fontSize=24;fillColor=#f0f0f0;strokeColor=none;fontColor=#999999;whiteSpace=wrap;" parent="tDJVFSzK_O32tygDH-b1-41" vertex="1">
          <mxGeometry width="230" height="200" as="geometry" />
        </mxCell>
        <mxCell id="3d76a8aef4d5c911-14" value="You see the icons used on this website? Yes? Then it should be clear that we are in need of a graphics desgner." style="html=1;shadow=0;dashed=0;shape=mxgraph.bootstrap.anchor;strokeColor=#dddddd;whiteSpace=wrap;align=left;verticalAlign=top;fontSize=14;whiteSpace=wrap;" parent="tDJVFSzK_O32tygDH-b1-41" vertex="1">
          <mxGeometry x="8.970000000000027" y="200" width="213.03" height="80" as="geometry" />
        </mxCell>
        <mxCell id="tDJVFSzK_O32tygDH-b1-35" value="&lt;h2&gt;&lt;b&gt;&lt;font style=&quot;font-size: 19px;&quot;&gt;APPLY&lt;/font&gt;&lt;/b&gt;&lt;/h2&gt;" style="rounded=1;whiteSpace=wrap;html=1;fillColor=#dae8fc;strokeColor=#6c8ebf;" parent="tDJVFSzK_O32tygDH-b1-41" vertex="1">
          <mxGeometry x="56.5151515151515" y="290" width="110" height="35" as="geometry" />
        </mxCell>
        <mxCell id="3d76a8aef4d5c911-1" value="" style="html=1;shadow=0;dashed=0;shape=mxgraph.bootstrap.rect;fillColor=#e1d5e7;strokeColor=#9673a6;whiteSpace=wrap;rounded=0;fontSize=12;align=left;" parent="1" vertex="1">
          <mxGeometry x="160" y="20" width="1120" height="40" as="geometry" />
        </mxCell>
        <mxCell id="3d76a8aef4d5c911-2" value="COMPANY NAME" style="html=1;shadow=0;dashed=0;fillColor=none;strokeColor=none;shape=mxgraph.bootstrap.rect;fontColor=#999999;fontSize=14;whiteSpace=wrap;align=left;" parent="3d76a8aef4d5c911-1" vertex="1">
          <mxGeometry x="38.95652173913044" width="779.1304347826087" height="40" as="geometry" />
        </mxCell>
        <mxCell id="3d76a8aef4d5c911-10" value="Log Out" style="html=1;shadow=0;dashed=0;fillColor=none;strokeColor=none;shape=mxgraph.bootstrap.rect;fontColor=#999999;whiteSpace=wrap;" parent="3d76a8aef4d5c911-1" vertex="1">
          <mxGeometry x="1022" width="98" height="40" as="geometry" />
        </mxCell>
        <mxCell id="3d76a8aef4d5c911-18" value="NOTHING HERE IS REAL!!!" style="html=1;shadow=0;dashed=0;shape=mxgraph.bootstrap.rrect;rSize=5;strokeColor=#dddddd;;align=center;spacingLeft=10;fontSize=16;whiteSpace=wrap;rounded=0;" parent="1" vertex="1">
          <mxGeometry x="160" y="100" width="840" height="100" as="geometry" />
        </mxCell>
        <mxCell id="3d76a8aef4d5c911-24" value="" style="html=1;shadow=0;dashed=0;shape=mxgraph.bootstrap.rrect;rSize=5;fontSize=12;strokeColor=#666666;align=left;spacing=10;verticalAlign=top;whiteSpace=wrap;rounded=0;fillColor=#f5f5f5;fontColor=#333333;" parent="1" vertex="1">
          <mxGeometry x="200" y="270" width="200" height="160" as="geometry" />
        </mxCell>
        <mxCell id="3d76a8aef4d5c911-29" value="NAME AND SURNAME" style="html=1;shadow=0;dashed=0;shape=mxgraph.bootstrap.rrect;rSize=5;strokeColor=#dddddd;align=left;spacingLeft=10;fontSize=16;whiteSpace=wrap;rounded=0;" parent="1" vertex="1">
          <mxGeometry x="480" y="910" width="520" height="40" as="geometry" />
        </mxCell>
        <mxCell id="1Ng4_Pogers-fWILuyGW-2" value="" style="html=1;shadow=0;dashed=0;shape=mxgraph.bootstrap.rrect;rSize=5;fontSize=12;strokeColor=#666666;align=left;spacing=10;verticalAlign=top;whiteSpace=wrap;rounded=0;fillColor=#f5f5f5;fontColor=#333333;" parent="1" vertex="1">
          <mxGeometry x="480" y="270" width="200" height="160" as="geometry" />
        </mxCell>
        <mxCell id="1Ng4_Pogers-fWILuyGW-3" value="" style="html=1;shadow=0;dashed=0;shape=mxgraph.bootstrap.rrect;rSize=5;fontSize=12;strokeColor=#666666;align=left;spacing=10;verticalAlign=top;whiteSpace=wrap;rounded=0;fillColor=#f5f5f5;fontColor=#333333;" parent="1" vertex="1">
          <mxGeometry x="760" y="270" width="200" height="160" as="geometry" />
        </mxCell>
        <mxCell id="1Ng4_Pogers-fWILuyGW-10" value="" style="html=1;shadow=0;dashed=0;shape=mxgraph.bootstrap.rrect;rSize=5;fontSize=12;strokeColor=#666666;align=left;spacing=10;verticalAlign=top;whiteSpace=wrap;rounded=0;fillColor=#f5f5f5;fontColor=#333333;" parent="1" vertex="1">
          <mxGeometry x="200" y="550" width="200" height="160" as="geometry" />
        </mxCell>
        <mxCell id="1Ng4_Pogers-fWILuyGW-13" value="" style="html=1;shadow=0;dashed=0;shape=mxgraph.bootstrap.rrect;rSize=5;fontSize=12;strokeColor=#666666;align=left;spacing=10;verticalAlign=top;whiteSpace=wrap;rounded=0;fillColor=#f5f5f5;fontColor=#333333;" parent="1" vertex="1">
          <mxGeometry x="480" y="550" width="200" height="160" as="geometry" />
        </mxCell>
        <mxCell id="1Ng4_Pogers-fWILuyGW-15" value="" style="html=1;shadow=0;dashed=0;shape=mxgraph.bootstrap.rrect;rSize=5;fontSize=12;strokeColor=#666666;align=left;spacing=10;verticalAlign=top;whiteSpace=wrap;rounded=0;fillColor=#f5f5f5;fontColor=#333333;" parent="1" vertex="1">
          <mxGeometry x="760" y="550" width="200" height="160" as="geometry" />
        </mxCell>
        <mxCell id="1Ng4_Pogers-fWILuyGW-17" value="" style="rounded=0;whiteSpace=wrap;html=1;" parent="1" vertex="1">
          <mxGeometry x="990" y="240" width="10" height="540" as="geometry" />
        </mxCell>
        <mxCell id="1Ng4_Pogers-fWILuyGW-20" value="" style="triangle;whiteSpace=wrap;html=1;rotation=-90;" parent="1" vertex="1">
          <mxGeometry x="990" y="226.66000000000003" width="10" height="13.34" as="geometry" />
        </mxCell>
        <mxCell id="1Ng4_Pogers-fWILuyGW-21" value="" style="triangle;whiteSpace=wrap;html=1;rotation=90;" parent="1" vertex="1">
          <mxGeometry x="990" y="780.0000000000001" width="10" height="13.34" as="geometry" />
        </mxCell>
        <mxCell id="1Ng4_Pogers-fWILuyGW-22" value="" style="rounded=0;whiteSpace=wrap;html=1;fillColor=#f5f5f5;fontColor=#333333;strokeColor=#666666;" parent="1" vertex="1">
          <mxGeometry x="990" y="240" width="10" height="20" as="geometry" />
        </mxCell>
        <mxCell id="1Ng4_Pogers-fWILuyGW-23" value="PRODUCT NAME" style="text;html=1;strokeColor=none;fillColor=none;align=center;verticalAlign=middle;whiteSpace=wrap;rounded=0;" parent="1" vertex="1">
          <mxGeometry x="245" y="400" width="110" height="30" as="geometry" />
        </mxCell>
        <mxCell id="1Ng4_Pogers-fWILuyGW-24" value="PRODUCT NAME" style="text;html=1;strokeColor=none;fillColor=none;align=center;verticalAlign=middle;whiteSpace=wrap;rounded=0;" parent="1" vertex="1">
          <mxGeometry x="525" y="400" width="110" height="30" as="geometry" />
        </mxCell>
        <mxCell id="1Ng4_Pogers-fWILuyGW-25" value="PRODUCT NAME" style="text;html=1;strokeColor=none;fillColor=none;align=center;verticalAlign=middle;whiteSpace=wrap;rounded=0;" parent="1" vertex="1">
          <mxGeometry x="805" y="400" width="110" height="30" as="geometry" />
        </mxCell>
        <mxCell id="1Ng4_Pogers-fWILuyGW-26" value="PRODUCT NAME" style="text;html=1;strokeColor=none;fillColor=none;align=center;verticalAlign=middle;whiteSpace=wrap;rounded=0;" parent="1" vertex="1">
          <mxGeometry x="805" y="680" width="110" height="30" as="geometry" />
        </mxCell>
        <mxCell id="1Ng4_Pogers-fWILuyGW-27" value="PRODUCT NAME" style="text;html=1;strokeColor=none;fillColor=none;align=center;verticalAlign=middle;whiteSpace=wrap;rounded=0;" parent="1" vertex="1">
          <mxGeometry x="525" y="680" width="110" height="30" as="geometry" />
        </mxCell>
        <mxCell id="1Ng4_Pogers-fWILuyGW-28" value="PRODUCT NAME" style="text;html=1;strokeColor=none;fillColor=none;align=center;verticalAlign=middle;whiteSpace=wrap;rounded=0;" parent="1" vertex="1">
          <mxGeometry x="240" y="680" width="110" height="30" as="geometry" />
        </mxCell>
        <mxCell id="1Ng4_Pogers-fWILuyGW-29" value="EMAIL ADDRESS" style="html=1;shadow=0;dashed=0;shape=mxgraph.bootstrap.rrect;rSize=5;strokeColor=#dddddd;align=left;spacingLeft=10;fontSize=16;whiteSpace=wrap;rounded=0;" parent="1" vertex="1">
          <mxGeometry x="480" y="990" width="520" height="40" as="geometry" />
        </mxCell>
        <mxCell id="1Ng4_Pogers-fWILuyGW-33" value="COMPANY LOGO" style="html=1;shadow=0;dashed=0;shape=mxgraph.bootstrap.rrect;rSize=5;fontSize=12;strokeColor=#666666;align=center;spacing=10;verticalAlign=top;whiteSpace=wrap;rounded=0;fillColor=#f5f5f5;fontColor=#333333;" parent="1" vertex="1">
          <mxGeometry x="160" y="830" width="280" height="200" as="geometry" />
        </mxCell>
        <mxCell id="1Ng4_Pogers-fWILuyGW-34" value="CONTACT DETAILS" style="html=1;shadow=0;dashed=0;shape=mxgraph.bootstrap.rrect;rSize=5;strokeColor=#dddddd;align=center;spacingLeft=10;fontSize=16;whiteSpace=wrap;rounded=0;" parent="1" vertex="1">
          <mxGeometry x="480" y="830" width="520" height="40" as="geometry" />
        </mxCell>
        <mxCell id="tDJVFSzK_O32tygDH-b1-60" value="" style="group;opacity=30;" parent="1" vertex="1" connectable="0">
          <mxGeometry x="160" y="20" width="1341" height="1010" as="geometry" />
        </mxCell>
        <mxCell id="tDJVFSzK_O32tygDH-b1-40" value="" style="group;fontSize=29;rounded=0;glass=0;shadow=0;opacity=30;strokeWidth=1;perimeterSpacing=2;fillStyle=dashed;dashed=1;fillColor=#dae8fc;strokeColor=#6c8ebf;" parent="tDJVFSzK_O32tygDH-b1-60" vertex="1" connectable="0">
          <mxGeometry width="1140" height="1010" as="geometry" />
        </mxCell>
        <mxCell id="tDJVFSzK_O32tygDH-b1-39" value="" style="group;fontSize=29;rounded=0;glass=0;shadow=0;opacity=30;strokeWidth=10;perimeterSpacing=2;" parent="tDJVFSzK_O32tygDH-b1-40" vertex="1" connectable="0">
          <mxGeometry width="1140" height="1010" as="geometry" />
        </mxCell>
        <mxCell id="tDJVFSzK_O32tygDH-b1-16" value="9" style="rounded=0;whiteSpace=wrap;html=1;dashed=1;fillColor=#dae8fc;strokeColor=#6c8ebf;strokeWidth=10;perimeterSpacing=2;fontSize=29;glass=0;shadow=0;opacity=30;sketch=1;curveFitting=1;jiggle=2;" parent="tDJVFSzK_O32tygDH-b1-39" vertex="1">
          <mxGeometry y="40" width="840" height="160" as="geometry" />
        </mxCell>
        <mxCell id="tDJVFSzK_O32tygDH-b1-18" value="3" style="rounded=0;whiteSpace=wrap;html=1;dashed=1;fillColor=#dae8fc;strokeColor=#6c8ebf;strokeWidth=10;perimeterSpacing=2;fontSize=29;glass=0;shadow=0;opacity=30;sketch=1;curveFitting=1;jiggle=2;" parent="tDJVFSzK_O32tygDH-b1-39" vertex="1">
          <mxGeometry y="780" width="280" height="230" as="geometry" />
        </mxCell>
        <mxCell id="tDJVFSzK_O32tygDH-b1-19" value="6" style="rounded=0;whiteSpace=wrap;html=1;dashed=1;fillColor=#dae8fc;strokeColor=#6c8ebf;strokeWidth=10;perimeterSpacing=2;fontSize=29;glass=0;shadow=0;opacity=30;sketch=1;curveFitting=1;jiggle=2;" parent="tDJVFSzK_O32tygDH-b1-39" vertex="1">
          <mxGeometry x="280" y="780" width="560" height="230" as="geometry" />
        </mxCell>
        <mxCell id="tDJVFSzK_O32tygDH-b1-32" value="3" style="rounded=0;whiteSpace=wrap;html=1;dashed=1;fillColor=#dae8fc;strokeColor=#6c8ebf;strokeWidth=10;perimeterSpacing=2;fontSize=29;glass=0;shadow=0;opacity=30;sketch=1;curveFitting=1;jiggle=2;" parent="tDJVFSzK_O32tygDH-b1-39" vertex="1">
          <mxGeometry x="840" y="780" width="280" height="230" as="geometry" />
        </mxCell>
        <mxCell id="tDJVFSzK_O32tygDH-b1-12" value="12" style="rounded=0;whiteSpace=wrap;html=1;dashed=1;fillColor=#dae8fc;strokeColor=#6c8ebf;strokeWidth=10;perimeterSpacing=2;fontSize=29;glass=0;shadow=0;opacity=30;sketch=1;curveFitting=1;jiggle=2;" parent="tDJVFSzK_O32tygDH-b1-39" vertex="1">
          <mxGeometry width="1120" height="40" as="geometry" />
        </mxCell>
        <mxCell id="tDJVFSzK_O32tygDH-b1-30" value="3" style="rounded=0;whiteSpace=wrap;html=1;dashed=1;fillColor=#dae8fc;strokeColor=#6c8ebf;strokeWidth=10;perimeterSpacing=2;fontSize=29;glass=0;shadow=0;opacity=30;sketch=1;curveFitting=1;jiggle=2;" parent="tDJVFSzK_O32tygDH-b1-40" vertex="1">
          <mxGeometry x="840" y="200" width="280" height="580" as="geometry" />
        </mxCell>
        <mxCell id="tDJVFSzK_O32tygDH-b1-38" value="3" style="rounded=0;whiteSpace=wrap;html=1;dashed=1;fillColor=#dae8fc;strokeColor=#6c8ebf;strokeWidth=10;perimeterSpacing=2;fontSize=29;glass=0;shadow=0;opacity=30;sketch=1;curveFitting=1;jiggle=2;" parent="tDJVFSzK_O32tygDH-b1-40" vertex="1">
          <mxGeometry x="840" y="40" width="280" height="160" as="geometry" />
        </mxCell>
        <mxCell id="tDJVFSzK_O32tygDH-b1-51" value="9" style="rounded=0;whiteSpace=wrap;html=1;dashed=1;fillColor=#dae8fc;strokeColor=#6c8ebf;strokeWidth=10;perimeterSpacing=2;fontSize=29;glass=0;shadow=0;opacity=30;sketch=1;curveFitting=1;jiggle=2;fontStyle=1;labelBackgroundColor=default;labelBorderColor=none;" parent="tDJVFSzK_O32tygDH-b1-40" vertex="1">
          <mxGeometry y="200" width="840" height="580" as="geometry" />
        </mxCell>
        <mxCell id="tDJVFSzK_O32tygDH-b1-59" value="" style="group;opacity=30;" parent="tDJVFSzK_O32tygDH-b1-60" vertex="1" connectable="0">
          <mxGeometry x="1151" y="5" width="190" height="1005" as="geometry" />
        </mxCell>
        <mxCell id="tDJVFSzK_O32tygDH-b1-53" value="&lt;b&gt;&lt;font style=&quot;font-size: 18px;&quot;&gt;ROW 1&lt;/font&gt;&lt;/b&gt;" style="text;html=1;strokeColor=#b85450;fillColor=#f8cecc;align=center;verticalAlign=middle;whiteSpace=wrap;rounded=1;strokeWidth=3;sketch=1;curveFitting=1;jiggle=2;opacity=30;" parent="tDJVFSzK_O32tygDH-b1-59" vertex="1">
          <mxGeometry width="80" height="30" as="geometry" />
        </mxCell>
        <mxCell id="tDJVFSzK_O32tygDH-b1-54" value="&lt;b&gt;&lt;font style=&quot;font-size: 18px;&quot;&gt;ROW 2&lt;/font&gt;&lt;/b&gt;" style="text;html=1;strokeColor=#b85450;fillColor=#f8cecc;align=center;verticalAlign=middle;whiteSpace=wrap;rounded=1;strokeWidth=3;sketch=1;curveFitting=1;jiggle=2;opacity=30;" parent="tDJVFSzK_O32tygDH-b1-59" vertex="1">
          <mxGeometry y="35" width="80" height="160" as="geometry" />
        </mxCell>
        <mxCell id="tDJVFSzK_O32tygDH-b1-55" value="&lt;b&gt;&lt;font style=&quot;font-size: 18px;&quot;&gt;ROW 3&lt;/font&gt;&lt;/b&gt;" style="text;html=1;strokeColor=#b85450;fillColor=#f8cecc;align=center;verticalAlign=middle;whiteSpace=wrap;rounded=1;strokeWidth=3;sketch=1;curveFitting=1;jiggle=2;opacity=30;" parent="tDJVFSzK_O32tygDH-b1-59" vertex="1">
          <mxGeometry y="201.66000000000003" width="80" height="573.34" as="geometry" />
        </mxCell>
        <mxCell id="tDJVFSzK_O32tygDH-b1-56" value="&lt;b&gt;&lt;font style=&quot;font-size: 18px;&quot;&gt;ROW 4&lt;/font&gt;&lt;/b&gt;" style="text;html=1;strokeColor=#b85450;fillColor=#f8cecc;align=center;verticalAlign=middle;whiteSpace=wrap;rounded=1;strokeWidth=3;sketch=1;curveFitting=1;jiggle=2;opacity=30;" parent="tDJVFSzK_O32tygDH-b1-59" vertex="1">
          <mxGeometry y="775" width="80" height="230" as="geometry" />
        </mxCell>
      </root>
    </mxGraphModel>
  </diagram>
</mxfile>
